<svg width="358" height="404" viewBox="0 0 358 404" fill="none" xmlns="http://www.w3.org/2000/svg">
<ellipse cx="289.58" cy="373.844" rx="6.00961" ry="9.23327" transform="rotate(-77.5623 289.58 373.844)" fill="#394AFF" fill-opacity="0.15"/>
<ellipse cx="330.02" cy="344.937" rx="6.00961" ry="9.23327" transform="rotate(6.43774 330.02 344.937)" fill="#394AFF" fill-opacity="0.15"/>
<ellipse cx="293.572" cy="354.749" rx="6.16384" ry="9.92281" transform="rotate(-52.5623 293.572 354.749)" fill="#394AFF" fill-opacity="0.15"/>
<ellipse cx="310.044" cy="342.971" rx="6.16384" ry="9.92281" transform="rotate(-18.5623 310.044 342.971)" fill="#394AFF" fill-opacity="0.15"/>
<path d="M305.18 378.519C305.18 378.519 303.191 383.336 305.761 386.931C308.332 390.526 311.5 390.525 313.084 390.524C314.668 390.524 316.979 389.324 316.979 389.324L337.052 374.973C337.052 374.973 339.448 373.26 339.747 371.462C340.046 369.663 341.072 366.666 338.716 363.371C336.36 360.075 331.394 359.778 331.394 359.778C331.394 359.778 326.556 360.293 324.394 359.802C322.232 359.311 317.629 357.622 316.28 357.001C314.931 356.381 312.405 355.697 309.666 357.882C306.927 360.066 306.885 361.907 306.843 363.748C306.801 365.589 307.701 368.748 307.318 372.011C306.934 375.273 305.18 378.519 305.18 378.519Z" fill="#394AFF" fill-opacity="0.15"/>
<ellipse cx="292.153" cy="288.851" rx="6.00961" ry="9.23327" transform="rotate(-77.5623 292.153 288.851)" fill="#394AFF" fill-opacity="0.15"/>
<ellipse cx="332.594" cy="259.945" rx="6.00961" ry="9.23327" transform="rotate(6.43774 332.594 259.945)" fill="#394AFF" fill-opacity="0.15"/>
<ellipse cx="296.146" cy="269.757" rx="6.16384" ry="9.92281" transform="rotate(-52.5623 296.146 269.757)" fill="#394AFF" fill-opacity="0.15"/>
<ellipse cx="312.618" cy="257.978" rx="6.16384" ry="9.92281" transform="rotate(-18.5623 312.618 257.978)" fill="#394AFF" fill-opacity="0.15"/>
<path d="M307.753 293.526C307.753 293.526 305.765 298.344 308.335 301.939C310.905 305.534 314.073 305.532 315.657 305.532C317.241 305.531 319.553 304.331 319.553 304.331L339.625 289.981C339.625 289.981 342.022 288.267 342.321 286.469C342.62 284.671 343.646 281.674 341.29 278.378C338.934 275.083 333.967 274.785 333.967 274.785C333.967 274.785 329.13 275.301 326.968 274.809C324.806 274.318 320.203 272.629 318.854 272.009C317.505 271.389 314.979 270.705 312.24 272.889C309.501 275.074 309.459 276.915 309.417 278.756C309.375 280.597 310.275 283.756 309.891 287.018C309.507 290.28 307.753 293.526 307.753 293.526Z" fill="#394AFF" fill-opacity="0.15"/>
<ellipse cx="201.106" cy="308.69" rx="6.00961" ry="9.23327" transform="rotate(-77.5623 201.106 308.69)" fill="#394AFF" fill-opacity="0.15"/>
<ellipse cx="241.547" cy="279.784" rx="6.00961" ry="9.23327" transform="rotate(6.43774 241.547 279.784)" fill="#394AFF" fill-opacity="0.15"/>
<ellipse cx="205.099" cy="289.596" rx="6.16384" ry="9.92281" transform="rotate(-52.5623 205.099 289.596)" fill="#394AFF" fill-opacity="0.15"/>
<ellipse cx="221.571" cy="277.817" rx="6.16384" ry="9.92281" transform="rotate(-18.5623 221.571 277.817)" fill="#394AFF" fill-opacity="0.15"/>
<path d="M216.707 313.365C216.707 313.365 214.718 318.183 217.288 321.778C219.859 325.373 223.027 325.371 224.611 325.371C226.195 325.37 228.506 324.17 228.506 324.17L248.578 309.82C248.578 309.82 250.975 308.106 251.274 306.308C251.573 304.51 252.599 301.513 250.243 298.217C247.887 294.922 242.921 294.624 242.921 294.624C242.921 294.624 238.083 295.14 235.921 294.648C233.759 294.157 229.156 292.468 227.807 291.848C226.458 291.228 223.932 290.544 221.193 292.728C218.454 294.913 218.412 296.754 218.37 298.595C218.328 300.436 219.228 303.595 218.845 306.857C218.461 310.119 216.707 313.365 216.707 313.365Z" fill="#394AFF" fill-opacity="0.15"/>
<ellipse cx="220.237" cy="194.262" rx="6.00961" ry="9.23327" transform="rotate(-77.5623 220.237 194.262)" fill="#394AFF" fill-opacity="0.15"/>
<ellipse cx="260.678" cy="165.355" rx="6.00961" ry="9.23327" transform="rotate(6.43774 260.678 165.355)" fill="#394AFF" fill-opacity="0.15"/>
<ellipse cx="224.23" cy="175.168" rx="6.16384" ry="9.92281" transform="rotate(-52.5623 224.23 175.168)" fill="#394AFF" fill-opacity="0.15"/>
<ellipse cx="240.702" cy="163.389" rx="6.16384" ry="9.92281" transform="rotate(-18.5623 240.702 163.389)" fill="#394AFF" fill-opacity="0.15"/>
<path d="M235.837 198.937C235.837 198.937 233.849 203.754 236.419 207.349C238.989 210.944 242.157 210.943 243.741 210.942C245.325 210.942 247.637 209.742 247.637 209.742L267.709 195.392C267.709 195.392 270.106 193.678 270.405 191.88C270.704 190.082 271.73 187.084 269.374 183.789C267.018 180.493 262.051 180.196 262.051 180.196C262.051 180.196 257.214 180.712 255.052 180.22C252.889 179.729 248.287 178.04 246.938 177.42C245.589 176.799 243.063 176.115 240.324 178.3C237.585 180.485 237.543 182.325 237.501 184.166C237.459 186.007 238.359 189.166 237.975 192.429C237.591 195.691 235.837 198.937 235.837 198.937Z" fill="#394AFF" fill-opacity="0.15"/>
<ellipse cx="118.917" cy="175.486" rx="6.00961" ry="9.23327" transform="rotate(-77.5623 118.917 175.486)" fill="#394AFF" fill-opacity="0.15"/>
<ellipse cx="159.357" cy="146.579" rx="6.00961" ry="9.23327" transform="rotate(6.43774 159.357 146.579)" fill="#394AFF" fill-opacity="0.15"/>
<ellipse cx="122.909" cy="156.391" rx="6.16384" ry="9.92281" transform="rotate(-52.5623 122.909 156.391)" fill="#394AFF" fill-opacity="0.15"/>
<ellipse cx="139.381" cy="144.613" rx="6.16384" ry="9.92281" transform="rotate(-18.5623 139.381 144.613)" fill="#394AFF" fill-opacity="0.15"/>
<path d="M134.517 180.161C134.517 180.161 132.528 184.978 135.098 188.573C137.669 192.168 140.837 192.167 142.421 192.166C144.005 192.166 146.316 190.966 146.316 190.966L166.389 176.615C166.389 176.615 168.785 174.902 169.084 173.104C169.383 171.305 170.409 168.308 168.053 165.013C165.697 161.717 160.731 161.42 160.731 161.42C160.731 161.42 155.893 161.935 153.731 161.444C151.569 160.953 146.966 159.264 145.617 158.643C144.268 158.023 141.742 157.339 139.003 159.524C136.264 161.708 136.222 163.549 136.18 165.39C136.138 167.231 137.038 170.39 136.655 173.653C136.271 176.915 134.517 180.161 134.517 180.161Z" fill="#394AFF" fill-opacity="0.15"/>
<ellipse cx="174.891" cy="80.1877" rx="6.00961" ry="9.23327" transform="rotate(-77.5623 174.891 80.1877)" fill="#394AFF" fill-opacity="0.15"/>
<ellipse cx="215.332" cy="51.2814" rx="6.00961" ry="9.23327" transform="rotate(6.43774 215.332 51.2814)" fill="#394AFF" fill-opacity="0.15"/>
<ellipse cx="178.883" cy="61.0936" rx="6.16384" ry="9.92281" transform="rotate(-52.5623 178.883 61.0936)" fill="#394AFF" fill-opacity="0.15"/>
<ellipse cx="195.355" cy="49.3148" rx="6.16384" ry="9.92281" transform="rotate(-18.5623 195.355 49.3148)" fill="#394AFF" fill-opacity="0.15"/>
<path d="M190.491 84.8632C190.491 84.8632 188.502 89.6804 191.073 93.2754C193.643 96.8705 196.811 96.8691 198.395 96.8685C199.979 96.8678 202.29 95.6681 202.29 95.6681L222.363 81.3175C222.363 81.3175 224.76 79.6041 225.058 77.8058C225.357 76.0076 226.384 73.0104 224.028 69.7149C221.671 66.4194 216.705 66.1218 216.705 66.1218C216.705 66.1218 211.868 66.6376 209.706 66.1462C207.543 65.6548 202.94 63.9657 201.591 63.3456C200.243 62.7254 197.716 62.0415 194.977 64.226C192.238 66.4106 192.196 68.2515 192.154 70.0924C192.112 71.9334 193.013 75.0925 192.629 78.3549C192.245 81.6173 190.491 84.8632 190.491 84.8632Z" fill="#394AFF" fill-opacity="0.15"/>
<ellipse cx="22.9103" cy="55.0348" rx="6.00961" ry="9.23327" transform="rotate(-77.5623 22.9103 55.0348)" fill="#394AFF" fill-opacity="0.15"/>
<ellipse cx="63.3511" cy="26.1284" rx="6.00961" ry="9.23327" transform="rotate(6.43774 63.3511 26.1284)" fill="#394AFF" fill-opacity="0.15"/>
<ellipse cx="26.9029" cy="35.9406" rx="6.16384" ry="9.92281" transform="rotate(-52.5623 26.9029 35.9406)" fill="#394AFF" fill-opacity="0.15"/>
<ellipse cx="43.3748" cy="24.1618" rx="6.16384" ry="9.92281" transform="rotate(-18.5623 43.3748 24.1618)" fill="#394AFF" fill-opacity="0.15"/>
<path d="M38.5105 59.7102C38.5105 59.7102 36.5218 64.5273 39.092 68.1224C41.6623 71.7175 44.8304 71.7161 46.4144 71.7155C47.9984 71.7148 50.3097 70.5151 50.3097 70.5151L70.3823 56.1645C70.3823 56.1645 72.779 54.451 73.0779 52.6528C73.3768 50.8546 74.403 47.8573 72.0469 44.5619C69.6909 41.2664 64.7246 40.9688 64.7246 40.9688C64.7246 40.9688 59.8871 41.4846 57.7249 40.9932C55.5627 40.5018 50.9597 38.8127 49.6109 38.1925C48.262 37.5724 45.7359 36.8884 42.9969 39.073C40.2578 41.2576 40.2158 43.0985 40.1738 44.9394C40.1318 46.7804 41.0322 49.9395 40.6483 53.2019C40.2644 56.4643 38.5105 59.7102 38.5105 59.7102Z" fill="#394AFF" fill-opacity="0.15"/>
</svg>
