<svg width="276" height="285" viewBox="0 0 276 285" fill="none" xmlns="http://www.w3.org/2000/svg">
<ellipse cx="30.7355" cy="47.0266" rx="30.7355" ry="47.0266" transform="matrix(-0.155909 -0.987771 0.993166 -0.116708 79.4774 24.5932)" fill="white" fill-opacity="0.09"/>
<ellipse cx="31.9735" cy="49.8018" rx="31.9735" ry="49.8018" transform="matrix(-0.915038 -0.403369 0.382903 -0.923789 229.574 216.837)" fill="white" fill-opacity="0.09"/>
<ellipse cx="31.9735" cy="49.8018" rx="31.9735" ry="49.8018" transform="matrix(-0.551433 -0.834219 0.846286 -0.532729 114.324 143.175)" fill="white" fill-opacity="0.09"/>
<path d="M320.958 72.933C320.958 72.933 347.444 77.2096 361.699 60.3185C375.954 43.4273 371.64 27.7364 369.483 19.8909C367.326 12.0454 358.261 1.98489 358.261 1.98489L260.123 -80.8363C260.123 -80.8363 248.405 -90.7254 239.12 -90.1253C229.836 -89.5252 213.643 -91.1402 200.576 -75.6566C187.51 -60.1731 192.792 -35.229 192.792 -35.229C192.792 -35.229 201.915 -11.8641 202.429 -0.58533C202.942 10.6934 200.861 35.448 199.633 42.8469C198.405 50.2457 198.463 63.5501 212.972 74.5896C227.481 85.6291 236.627 83.7072 245.773 81.7852C254.918 79.8632 269.291 71.7478 285.92 69.8745C302.548 68.0012 320.958 72.933 320.958 72.933Z" fill="white" fill-opacity="0.09"/>
</svg>
