<svg width="140" height="105" viewBox="0 0 140 105" fill="none" xmlns="http://www.w3.org/2000/svg">
<ellipse cx="21.4717" cy="48.5716" rx="11.7336" ry="18.0277" transform="rotate(-42 21.4717 48.5716)" fill="#1D1E18"/>
<ellipse cx="118.528" cy="48.5815" rx="11.7336" ry="18.0277" transform="rotate(42 118.528 48.5815)" fill="#1D1E18"/>
<ellipse cx="49.4948" cy="22.7779" rx="12.0347" ry="19.374" transform="rotate(-17 49.4948 22.7779)" fill="#1D1E18"/>
<ellipse cx="89.0328" cy="22.774" rx="12.0347" ry="19.374" transform="rotate(17 89.0328 22.774)" fill="#1D1E18"/>
<path d="M40.9401 73.7122C40.9401 73.7122 32.3114 79.1051 32.3114 87.7338C32.3114 96.3625 37.3448 99.9578 39.8615 101.755C42.3782 103.553 47.4116 104.272 47.4116 104.272H95.5884C95.5884 104.272 101.341 104.272 103.858 101.755C106.374 99.2387 111.408 95.6434 111.408 87.7338C111.408 79.8242 103.858 73.7122 103.858 73.7122C103.858 73.7122 95.5884 69.0383 92.7122 65.8026C89.836 62.5668 84.4431 54.6572 83.0049 52.1405C81.5668 49.6238 78.3311 45.669 71.5 46.0285C64.669 46.388 62.5118 49.2642 60.3546 52.1405C58.1975 55.0167 56.0403 61.0568 51.7259 65.8026C47.4116 70.5483 40.9401 73.7122 40.9401 73.7122Z" fill="#1D1E18"/>
</svg>
