<svg width="358" height="404" viewBox="0 0 358 404" fill="none" xmlns="http://www.w3.org/2000/svg">
<ellipse cx="68.262" cy="29.3977" rx="6.00961" ry="9.23327" transform="rotate(102.438 68.262 29.3977)" fill="#394AFF" fill-opacity="0.15"/>
<ellipse cx="27.8212" cy="58.304" rx="6.00961" ry="9.23327" transform="rotate(-173.562 27.8212 58.304)" fill="#394AFF" fill-opacity="0.15"/>
<ellipse cx="64.2695" cy="48.4918" rx="6.16384" ry="9.92281" transform="rotate(127.438 64.2695 48.4918)" fill="#394AFF" fill-opacity="0.15"/>
<ellipse cx="47.7975" cy="60.2707" rx="6.16384" ry="9.92281" transform="rotate(161.438 47.7975 60.2707)" fill="#394AFF" fill-opacity="0.15"/>
<path d="M52.6619 24.7223C52.6619 24.7223 54.6505 19.9051 52.0803 16.31C49.5101 12.715 46.342 12.7163 44.758 12.717C43.1739 12.7177 40.8626 13.9174 40.8626 13.9174L20.7901 28.2679C20.7901 28.2679 18.3934 29.9814 18.0945 31.7796C17.7956 33.5779 16.7694 36.5751 19.1254 39.8706C21.4815 43.1661 26.4478 43.4636 26.4478 43.4636C26.4478 43.4636 31.2853 42.9478 33.4475 43.4392C35.6097 43.9306 40.2126 45.6197 41.5615 46.2399C42.9103 46.8601 45.4365 47.544 48.1755 45.3594C50.9145 43.1749 50.9565 41.334 50.9985 39.493C51.0406 37.6521 50.1402 34.493 50.5241 31.2306C50.908 27.9682 52.6619 24.7223 52.6619 24.7223Z" fill="#394AFF" fill-opacity="0.15"/>
<ellipse cx="65.6885" cy="114.39" rx="6.00961" ry="9.23327" transform="rotate(102.438 65.6885 114.39)" fill="#394AFF" fill-opacity="0.15"/>
<ellipse cx="25.2476" cy="143.297" rx="6.00961" ry="9.23327" transform="rotate(-173.562 25.2476 143.297)" fill="#394AFF" fill-opacity="0.15"/>
<ellipse cx="61.6959" cy="133.484" rx="6.16384" ry="9.92281" transform="rotate(127.438 61.6959 133.484)" fill="#394AFF" fill-opacity="0.15"/>
<ellipse cx="45.224" cy="145.263" rx="6.16384" ry="9.92281" transform="rotate(161.438 45.224 145.263)" fill="#394AFF" fill-opacity="0.15"/>
<path d="M50.0883 109.715C50.0883 109.715 52.0769 104.898 49.5067 101.303C46.9365 97.7076 43.7684 97.709 42.1844 97.7097C40.6003 97.7103 38.289 98.9101 38.289 98.9101L18.2165 113.261C18.2165 113.261 15.8198 114.974 15.5209 116.772C15.222 118.571 14.1958 121.568 16.5518 124.863C18.9079 128.159 23.8742 128.456 23.8742 128.456C23.8742 128.456 28.7117 127.94 30.8739 128.432C33.0361 128.923 37.639 130.612 38.9879 131.233C40.3367 131.853 42.8629 132.537 45.6019 130.352C48.3409 128.168 48.3829 126.327 48.425 124.486C48.467 122.645 47.5666 119.486 47.9505 116.223C48.3344 112.961 50.0883 109.715 50.0883 109.715Z" fill="#394AFF" fill-opacity="0.15"/>
<ellipse cx="156.735" cy="94.5514" rx="6.00961" ry="9.23327" transform="rotate(102.438 156.735 94.5514)" fill="#394AFF" fill-opacity="0.15"/>
<ellipse cx="116.294" cy="123.458" rx="6.00961" ry="9.23327" transform="rotate(-173.562 116.294 123.458)" fill="#394AFF" fill-opacity="0.15"/>
<ellipse cx="152.743" cy="113.646" rx="6.16384" ry="9.92281" transform="rotate(127.438 152.743 113.646)" fill="#394AFF" fill-opacity="0.15"/>
<ellipse cx="136.271" cy="125.424" rx="6.16384" ry="9.92281" transform="rotate(161.438 136.271 125.424)" fill="#394AFF" fill-opacity="0.15"/>
<path d="M141.135 89.876C141.135 89.876 143.124 85.0588 140.553 81.4637C137.983 77.8686 134.815 77.87 133.231 77.8707C131.647 77.8714 129.336 79.0711 129.336 79.0711L109.263 93.4216C109.263 93.4216 106.866 95.1351 106.568 96.9333C106.269 98.7315 105.242 101.729 107.598 105.024C109.955 108.32 114.921 108.617 114.921 108.617C114.921 108.617 119.758 108.102 121.92 108.593C124.083 109.084 128.686 110.773 130.035 111.394C131.383 112.014 133.91 112.698 136.649 110.513C139.388 108.329 139.43 106.488 139.472 104.647C139.514 102.806 138.613 99.6467 138.997 96.3843C139.381 93.1218 141.135 89.876 141.135 89.876Z" fill="#394AFF" fill-opacity="0.15"/>
<ellipse cx="137.605" cy="208.98" rx="6.00961" ry="9.23327" transform="rotate(102.438 137.605 208.98)" fill="#394AFF" fill-opacity="0.15"/>
<ellipse cx="97.1637" cy="237.886" rx="6.00961" ry="9.23327" transform="rotate(-173.562 97.1637 237.886)" fill="#394AFF" fill-opacity="0.15"/>
<ellipse cx="133.612" cy="228.074" rx="6.16384" ry="9.92281" transform="rotate(127.438 133.612 228.074)" fill="#394AFF" fill-opacity="0.15"/>
<ellipse cx="117.14" cy="239.853" rx="6.16384" ry="9.92281" transform="rotate(161.438 117.14 239.853)" fill="#394AFF" fill-opacity="0.15"/>
<path d="M122.004 204.304C122.004 204.304 123.993 199.487 121.423 195.892C118.853 192.297 115.684 192.298 114.1 192.299C112.516 192.3 110.205 193.499 110.205 193.499L90.1325 207.85C90.1325 207.85 87.7358 209.563 87.4369 211.362C87.138 213.16 86.1118 216.157 88.4679 219.452C90.8239 222.748 95.7902 223.046 95.7902 223.046C95.7902 223.046 100.628 222.53 102.79 223.021C104.952 223.513 109.555 225.202 110.904 225.822C112.253 226.442 114.779 227.126 117.518 224.941C120.257 222.757 120.299 220.916 120.341 219.075C120.383 217.234 119.483 214.075 119.867 210.812C120.25 207.55 122.004 204.304 122.004 204.304Z" fill="#394AFF" fill-opacity="0.15"/>
<ellipse cx="238.925" cy="227.756" rx="6.00961" ry="9.23327" transform="rotate(102.438 238.925 227.756)" fill="#394AFF" fill-opacity="0.15"/>
<ellipse cx="198.484" cy="256.662" rx="6.00961" ry="9.23327" transform="rotate(-173.562 198.484 256.662)" fill="#394AFF" fill-opacity="0.15"/>
<ellipse cx="234.932" cy="246.85" rx="6.16384" ry="9.92281" transform="rotate(127.438 234.932 246.85)" fill="#394AFF" fill-opacity="0.15"/>
<ellipse cx="218.461" cy="258.629" rx="6.16384" ry="9.92281" transform="rotate(161.438 218.461 258.629)" fill="#394AFF" fill-opacity="0.15"/>
<path d="M223.325 223.08C223.325 223.08 225.313 218.263 222.743 214.668C220.173 211.073 217.005 211.074 215.421 211.075C213.837 211.076 211.526 212.276 211.526 212.276L191.453 226.626C191.453 226.626 189.056 228.34 188.757 230.138C188.459 231.936 187.432 234.933 189.788 238.229C192.144 241.524 197.111 241.822 197.111 241.822C197.111 241.822 201.948 241.306 204.11 241.797C206.273 242.289 210.876 243.978 212.224 244.598C213.573 245.218 216.099 245.902 218.838 243.718C221.577 241.533 221.619 239.692 221.661 237.851C221.704 236.01 220.803 232.851 221.187 229.589C221.571 226.326 223.325 223.08 223.325 223.08Z" fill="#394AFF" fill-opacity="0.15"/>
<ellipse cx="182.951" cy="323.054" rx="6.00961" ry="9.23327" transform="rotate(102.438 182.951 323.054)" fill="#394AFF" fill-opacity="0.15"/>
<ellipse cx="142.51" cy="351.96" rx="6.00961" ry="9.23327" transform="rotate(-173.562 142.51 351.96)" fill="#394AFF" fill-opacity="0.15"/>
<ellipse cx="178.958" cy="342.148" rx="6.16384" ry="9.92281" transform="rotate(127.438 178.958 342.148)" fill="#394AFF" fill-opacity="0.15"/>
<ellipse cx="162.486" cy="353.927" rx="6.16384" ry="9.92281" transform="rotate(161.438 162.486 353.927)" fill="#394AFF" fill-opacity="0.15"/>
<path d="M167.351 318.378C167.351 318.378 169.339 313.561 166.769 309.966C164.199 306.371 161.031 306.372 159.447 306.373C157.863 306.374 155.551 307.573 155.551 307.573L135.479 321.924C135.479 321.924 133.082 323.637 132.783 325.436C132.484 327.234 131.458 330.231 133.814 333.526C136.17 336.822 141.136 337.12 141.136 337.12C141.136 337.12 145.974 336.604 148.136 337.095C150.298 337.586 154.901 339.276 156.25 339.896C157.599 340.516 160.125 341.2 162.864 339.015C165.603 336.831 165.645 334.99 165.687 333.149C165.729 331.308 164.829 328.149 165.213 324.886C165.597 321.624 167.351 318.378 167.351 318.378Z" fill="#394AFF" fill-opacity="0.15"/>
<ellipse cx="334.931" cy="348.207" rx="6.00961" ry="9.23327" transform="rotate(102.438 334.931 348.207)" fill="#394AFF" fill-opacity="0.15"/>
<ellipse cx="294.49" cy="377.113" rx="6.00961" ry="9.23327" transform="rotate(-173.562 294.49 377.113)" fill="#394AFF" fill-opacity="0.15"/>
<ellipse cx="330.939" cy="367.301" rx="6.16384" ry="9.92281" transform="rotate(127.438 330.939 367.301)" fill="#394AFF" fill-opacity="0.15"/>
<ellipse cx="314.467" cy="379.08" rx="6.16384" ry="9.92281" transform="rotate(161.438 314.467 379.08)" fill="#394AFF" fill-opacity="0.15"/>
<path d="M319.331 343.531C319.331 343.531 321.32 338.714 318.75 335.119C316.179 331.524 313.011 331.525 311.427 331.526C309.843 331.527 307.532 332.726 307.532 332.726L287.459 347.077C287.459 347.077 285.063 348.79 284.764 350.589C284.465 352.387 283.439 355.384 285.795 358.679C288.151 361.975 293.117 362.273 293.117 362.273C293.117 362.273 297.955 361.757 300.117 362.248C302.279 362.74 306.882 364.429 308.231 365.049C309.58 365.669 312.106 366.353 314.845 364.168C317.584 361.984 317.626 360.143 317.668 358.302C317.71 356.461 316.809 353.302 317.193 350.039C317.577 346.777 319.331 343.531 319.331 343.531Z" fill="#394AFF" fill-opacity="0.15"/>
</svg>
